<?xml version="1.0" encoding="UTF-8"?>
<!-- keepassxc -->
<svg xmlns="http://www.w3.org/2000/svg" width="512" height="512" viewBox="0 0 100 100">
  <path d="M32 46L32 38" fill="none" stroke="#a855f7" stroke-width="8" stroke-linecap="round" stroke-linejoin="round"/>
  <path d="M32 38L68 38" fill="none" stroke="#a855f7" stroke-width="8" stroke-linecap="round" stroke-linejoin="round"/>
  <path d="M68 38L68 46" fill="none" stroke="#a855f7" stroke-width="8" stroke-linecap="round" stroke-linejoin="round"/>
  <path d="M32 46L68 46A6 6 0 0 1 74 52L74 80A6 6 0 0 1 68 86L32 86A6 6 0 0 1 26 80L26 52A6 6 0 0 1 32 46Z" fill="#a855f7"/>
  <path d="M44 62a6 6 0 1 0 12 0a6 6 0 1 0 -12 0Z" fill="#09030d" fill-opacity="0.533333"/>
  <path d="M49 62L51 62A2 2 0 0 1 53 64L53 72A2 2 0 0 1 51 74L49 74A2 2 0 0 1 47 72L47 64A2 2 0 0 1 49 62Z" fill="#09030d" fill-opacity="0.533333"/>
</svg>
