# Blender v2.79 (sub 0) OBJ File: 'cube.blend'
# www.blender.org
mtllib cube.mtl
o Cube
v -1.000000 0.011560 1.000000
v -1.000000 2.011560 1.000000
v -1.000000 0.011560 -1.000000
v -1.000000 2.011560 -1.000000
v 1.000000 0.011560 1.000000
v 1.000000 2.011560 1.000000
v 1.000000 0.011560 -1.000000
v 1.000000 2.011560 -1.000000
v -1.000000 0.172604 0.838957
v -1.000000 1.850517 0.838957
v -1.000000 1.850517 -0.838957
v -1.000000 0.172604 -0.838957
v -0.838957 0.172604 -1.000000
v -0.838957 1.850517 -1.000000
v 0.838957 1.850517 -1.000000
v 0.838957 0.172604 -1.000000
v 1.000000 0.172604 -0.838957
v 1.000000 1.850517 -0.838957
v 1.000000 1.850517 0.838957
v 1.000000 0.172604 0.838957
v 0.838957 0.172604 1.000000
v 0.838957 1.850517 1.000000
v -0.838957 1.850517 1.000000
v -0.838957 0.172604 1.000000
v -0.838957 0.011560 -0.838957
v 0.838957 0.011560 -0.838957
v 0.838957 0.011560 0.838957
v -0.838957 0.011560 0.838957
v 0.838957 2.011560 -0.838957
v -0.838957 2.011560 -0.838957
v -0.838957 2.011560 0.838957
v 0.838957 2.011560 0.838957
v -0.973313 0.172604 0.838957
v -0.973313 1.850517 0.838957
v -0.973313 0.172604 -0.838957
v -0.973313 1.850517 -0.838957
v -0.838957 1.850517 -0.973313
v -0.838957 0.172604 -0.973313
v 0.838957 0.172604 -0.973313
v 0.838957 1.850517 -0.973313
v 0.973313 1.850517 -0.838957
v 0.973313 0.172604 -0.838957
v 0.973313 0.172604 0.838957
v 0.973313 1.850517 0.838957
v 0.838957 1.850517 0.973313
v 0.838957 0.172604 0.973313
v -0.838957 0.172604 0.973313
v -0.838957 1.850517 0.973313
v 0.838957 0.038247 -0.838957
v -0.838957 0.038247 -0.838957
v -0.838957 0.038247 0.838957
v 0.838957 0.038247 0.838957
v -0.838957 1.984873 -0.838957
v 0.838957 1.984873 -0.838957
v 0.838957 1.984873 0.838957
v -0.838957 1.984873 0.838957
vt 0.080606 0.919394
vt 0.080606 0.080606
vt 0.080606 0.080606
vt 0.080606 0.919394
vt 0.080606 0.080606
vt 0.919394 0.080606
vt 0.919394 0.080606
vt 0.080606 0.080606
vt 0.919394 0.919394
vt 0.080606 0.919394
vt 0.080606 0.919394
vt 0.919394 0.919394
vt 0.080606 0.919394
vt 0.080606 0.919394
vt 0.080606 0.919394
vt 0.080606 0.080606
vt 0.080606 0.080606
vt 0.080606 0.919394
vt 0.919394 0.080606
vt 0.919394 0.080606
vt 0.000100 0.999900
vt 0.000100 0.000100
vt 0.999900 0.000100
vt 0.919394 0.080606
vt 0.999900 0.999900
vt 0.919394 0.919394
vt 0.000100 0.999900
vt 0.000100 0.000100
vt 0.080606 0.080606
vt 0.080606 0.919394
vt 0.999900 0.000100
vt 0.919394 0.080606
vt 0.999900 0.999900
vt 0.919394 0.919394
vt 0.999900 0.000100
vt 0.999900 0.999900
vt 0.919394 0.919394
vt 0.919394 0.080606
vt 0.000100 0.999900
vt 0.080606 0.919394
vt 0.000100 0.000100
vt 0.080606 0.080606
vt 0.999900 0.000100
vt 0.999900 0.999900
vt 0.919394 0.919394
vt 0.919394 0.080606
vt 0.000100 0.999900
vt 0.000100 0.000100
vt 0.000100 0.000100
vt 0.080606 0.080606
vt 0.999900 0.999900
vt 0.000100 0.999900
vt 0.919394 0.919394
vt 0.999900 0.000100
vt 0.919394 0.080606
vt 0.919394 0.919394
vt 0.080606 0.919394
vt 0.080606 0.080606
vt 0.919394 0.080606
vt 0.919394 0.919394
vt 0.919394 0.080606
vt 0.919394 0.919394
vt 0.080606 0.919394
vt 0.080606 0.080606
vt 0.919394 0.080606
vt 0.919394 0.919394
vt 0.080606 0.080606
vt 0.919394 0.919394
vn 0.0000 0.0000 -1.0000
vn 1.0000 0.0000 0.0000
vn -1.0000 0.0000 0.0000
vn 0.0000 0.0000 1.0000
vn 0.0000 -1.0000 -0.0000
vn 0.0000 1.0000 0.0000
usemtl Material
s off
f 9/1/1 10/2/1 34/3/1 33/4/1
f 31/5/1 32/6/1 55/7/1 56/8/1
f 27/9/1 28/10/1 51/11/1 52/12/1
f 30/13/2 31/5/2 56/8/2 53/14/2
f 23/15/2 24/16/2 47/17/2 48/18/2
f 26/19/3 27/9/3 52/12/3 49/20/3
f 1/21/3 2/22/3 10/2/3 9/1/3
f 2/22/3 4/23/3 11/24/3 10/2/3
f 4/23/3 3/25/3 12/26/3 11/24/3
f 3/25/3 1/21/3 9/1/3 12/26/3
f 3/27/1 4/28/1 14/29/1 13/30/1
f 4/28/1 8/31/1 15/32/1 14/29/1
f 8/31/1 7/33/1 16/34/1 15/32/1
f 7/33/1 3/27/1 13/30/1 16/34/1
f 7/35/2 8/36/2 18/37/2 17/38/2
f 8/36/2 6/39/2 19/40/2 18/37/2
f 6/39/2 5/41/2 20/42/2 19/40/2
f 5/41/2 7/35/2 17/38/2 20/42/2
f 5/43/4 6/44/4 22/45/4 21/46/4
f 6/44/4 2/47/4 23/15/4 22/45/4
f 2/47/4 1/48/4 24/16/4 23/15/4
f 1/48/4 5/43/4 21/46/4 24/16/4
f 3/49/5 7/35/5 26/19/5 25/50/5
f 7/35/5 5/51/5 27/9/5 26/19/5
f 5/51/5 1/21/5 28/10/5 27/9/5
f 1/21/5 3/49/5 25/50/5 28/10/5
f 8/36/6 4/52/6 30/13/6 29/53/6
f 4/52/6 2/22/6 31/5/6 30/13/6
f 2/22/6 6/54/6 32/6/6 31/5/6
f 6/54/6 8/36/6 29/53/6 32/6/6
f 33/4/3 34/3/3 36/55/3 35/56/3
f 38/57/1 37/58/1 40/59/1 39/60/1
f 42/61/2 41/62/2 44/63/2 43/64/2
f 46/65/4 45/66/4 48/18/4 47/17/4
f 50/67/5 49/20/5 52/12/5 51/11/5
f 54/68/6 53/14/6 56/8/6 55/7/6
f 13/30/2 14/29/2 37/58/2 38/57/2
f 12/26/6 9/1/6 33/4/6 35/56/6
f 17/38/4 18/37/4 41/62/4 42/61/4
f 16/34/6 13/30/6 38/57/6 39/60/6
f 21/46/3 22/45/3 45/66/3 46/65/3
f 10/2/5 11/24/5 36/55/5 34/3/5
f 20/42/6 17/38/6 42/61/6 43/64/6
f 25/50/4 26/19/4 49/20/4 50/67/4
f 14/29/5 15/32/5 40/59/5 37/58/5
f 24/16/6 21/46/6 46/65/6 47/17/6
f 29/53/4 30/13/4 53/14/4 54/68/4
f 11/24/4 12/26/4 35/56/4 36/55/4
f 18/37/5 19/40/5 44/63/5 41/62/5
f 28/10/2 25/50/2 50/67/2 51/11/2
f 15/32/3 16/34/3 39/60/3 40/59/3
f 22/45/5 23/15/5 48/18/5 45/66/5
f 32/6/3 29/53/3 54/68/3 55/7/3
f 19/40/1 20/42/1 43/64/1 44/63/1
