# Blender v2.79 (sub 0) OBJ File: 'water.blend'
# www.blender.org
mtllib water.mtl
o Plane
v 24.026909 -4.732935 -35.935314
v 45.406895 -4.832944 -17.774822
v 37.638512 -4.732935 14.258012
v -16.691637 -8.343142 13.446544
v -29.586554 -4.720238 -34.815590
v 36.507381 -4.750124 -26.075022
v 42.215675 -4.732935 2.786741
v 11.010688 -7.908114 15.715571
v -26.870565 -4.732935 -9.014339
v -5.700872 -4.731377 -35.812611
v 30.423332 -4.732935 -31.446938
v 44.103416 -4.853441 -9.766922
v 24.738094 -6.151632 15.715571
v -21.192190 -6.633224 3.306596
v -18.905348 -4.515010 -35.560398
v 41.432987 -4.865336 -21.562620
v 40.676495 -4.732935 8.247991
v -3.099993 -8.649035 15.715571
v 10.156647 -4.732935 -36.112858
v 41.047829 -4.973652 -9.955193
v 37.146347 -5.053814 -10.048926
v 27.517540 -4.782576 -10.210083
v 17.461470 -4.732935 -10.371241
v 3.381030 -4.732935 -10.362233
v -11.250000 -4.733359 -10.353227
v -20.320532 -4.608364 -10.304283
v 45.090652 -4.873940 -14.082425
v 41.250763 -5.047336 -16.231188
v 36.743286 -5.070064 -18.648548
v 29.033607 -4.779347 -21.388222
v 20.993149 -4.732935 -23.796576
v 6.916133 -4.732850 -23.822620
v -8.181395 -4.448886 -23.669487
v -19.560808 -3.793207 -23.534374
v -29.534754 -4.345935 -23.414272
v 42.584709 -4.732935 0.042251
v 40.673386 -4.732935 2.624135
v 37.581322 -4.732935 4.593968
v 25.906727 -4.851120 4.728818
v 13.700083 -5.358099 4.728818
v -0.375017 -6.114402 4.728818
v -14.620152 -7.969047 4.808688
v 43.300690 -4.747425 -4.727436
v 40.862675 -4.754965 -3.895432
v 37.343735 -4.758679 -3.355964
v 26.759514 -4.732935 -3.288539
v 15.695632 -4.732935 -3.288539
v 1.613479 -4.732935 -3.288539
v -12.828983 -5.755416 -3.248605
v -19.606451 -5.546031 -3.022309
v 31.601793 -4.839620 15.715571
v 33.238274 -4.732935 -28.975857
v 32.401852 -4.964631 -10.129506
v 32.838245 -4.934837 -20.098965
v 31.938179 -4.732935 4.728818
v 32.183647 -4.738878 -3.288539
v 27.608395 -4.732935 -33.918018
v 17.874388 -7.560246 15.715571
v 22.633232 -4.732935 -10.290663
v 25.228970 -4.732935 -22.677479
v 19.875269 -5.204976 4.728818
v 21.335369 -4.732935 -3.288539
v 3.955349 -8.144600 15.715571
v 17.475048 -4.732935 -36.250980
v 10.564979 -4.732935 -10.366737
v 14.170232 -4.732935 -23.894676
v 6.734396 -5.776638 4.728818
v 8.762352 -4.732935 -3.288539
v 2.838242 -4.732935 -35.974747
v -10.155333 -8.191477 15.715571
v -3.802917 -4.732458 -10.357731
v -0.337965 -4.726465 -23.750557
v -7.484430 -6.666896 4.728818
v -5.535397 -5.032140 -3.288539
v 41.151367 -5.058805 -13.323135
v 36.944817 -5.173267 -14.531813
v 28.275578 -4.845450 -15.901649
v 19.227306 -4.732935 -17.105824
v 5.148582 -4.732788 -17.118847
v -9.715696 -4.487256 -17.042284
v -19.918322 -4.075733 -16.974728
v -28.775702 -4.458760 -16.914677
v 44.640411 -4.880181 -12.248752
v 32.620045 -5.058427 -15.257022
v 23.931099 -4.732935 -16.546280
v 12.367604 -4.732935 -17.154881
v -2.070442 -4.727831 -17.082819
v 45.540909 -4.848583 -15.916098
v 41.350155 -4.962188 -19.139244
v 36.541756 -4.869922 -22.765282
v 29.791639 -4.732935 -26.874794
v 22.758987 -4.732935 -30.487324
v 8.683685 -4.732935 -30.526382
v -6.647095 -4.690656 -30.296692
v -19.203283 -4.075225 -30.094025
v -30.293798 -4.549871 -29.913872
v 33.056442 -4.760509 -24.940905
v 26.526840 -4.732935 -28.808678
v 15.972860 -4.732935 -30.634476
v 1.394512 -4.730781 -30.418297
v 24.026909 -28.238094 -35.935314
v 45.406895 -28.238094 -17.774822
v 37.638512 -28.238094 14.258012
v -16.691637 -28.238094 13.446544
v -29.586554 -28.238094 -34.815590
v 36.507381 -28.238094 -26.075022
v 42.215675 -28.238094 2.786741
v 11.010688 -28.238094 15.715571
v -26.870565 -28.238094 -9.014339
v -5.700872 -28.238094 -35.812611
v 30.423332 -28.238094 -31.446938
v 44.103416 -28.238094 -9.766922
v 24.738094 -28.238094 15.715571
v -21.192190 -28.238094 3.306596
v -18.905348 -28.238094 -35.560398
v 41.432987 -28.238094 -21.562620
v 40.676495 -28.238094 8.247991
v -3.099993 -28.238094 15.715571
v 10.156647 -28.238094 -36.112858
v 45.090652 -28.238094 -14.082425
v -29.534754 -28.238094 -23.414272
v 42.584709 -28.238094 0.042251
v 43.300690 -28.238094 -4.727436
v 31.601793 -28.238094 15.715571
v 33.238274 -28.238094 -28.975857
v 27.608395 -28.238094 -33.918018
v 17.874388 -28.238094 15.715571
v 3.955349 -28.238094 15.715571
v 17.475048 -28.238094 -36.250980
v 2.838242 -28.238094 -35.974747
v -10.155333 -28.238094 15.715571
v -28.775702 -28.238094 -16.914677
v 44.640411 -28.238094 -12.248752
v 45.540909 -28.238094 -15.916098
v -30.293798 -28.238094 -29.913872
v -12.303110 -4.623194 -35.686504
v -15.785266 -4.670861 -10.328754
v -13.871101 -4.121047 -23.601931
v -17.906170 -7.301136 4.057642
v -16.217716 -5.650723 -3.135457
v -14.817009 -4.281494 -17.008507
v -12.925189 -4.382941 -30.195358
v -12.303110 -28.238094 -35.686504
vt 4.363154 5.645590
vt 3.757733 5.645590
vt -0.376048 5.645590
vt 0.619034 5.645590
vt 0.809847 5.645590
vt 0.468575 5.645590
vt -1.760884 5.645590
vt -0.963913 5.645590
vt 1.410362 5.645590
vt 1.151119 5.645590
vt -0.166942 5.645590
vt 0.568507 5.645590
vt -1.364324 5.645590
vt 0.928569 5.645590
vt -0.458867 5.645590
vt -2.001953 5.645590
vt -0.443362 5.645589
vt -2.745898 5.645590
vt -2.119897 5.645590
vt -2.639582 5.645590
vt 0.521593 5.645590
vt 1.702583 5.645590
vt 1.298848 5.645590
vt 0.833592 5.645590
vt 0.368335 5.645590
vt 7.226700 5.645590
vt 6.210064 5.645590
vt 5.455123 5.645590
vt 4.700181 5.645590
vt 3.244741 5.645589
vt 3.501237 5.645590
vt 7.562850 5.645590
vt 7.620730 5.645590
vt 8.638991 5.645590
vt 7.811726 5.645590
vt 9.209768 5.645590
vt 12.257895 5.645590
vt -3.277212 5.645590
vt -3.780927 5.645590
vt -7.102987 5.645590
vt -4.552470 5.645590
vt -5.048433 5.645590
vt -9.653504 5.645590
vt -0.273348 5.645590
vt -1.485003 5.645590
vt -4.121126 5.645590
vt -1.957059 5.645590
vt -2.737673 5.645590
vt -3.990343 5.645590
vt -8.449260 5.645590
vt -6.285192 5.645590
vt -3.125086 5.645590
vt -4.509830 5.645590
vt -12.777393 5.645590
vt -10.613327 5.645590
vt -5.720112 5.645590
vt -6.930393 5.645590
vt -17.105528 5.645590
vt -14.941461 5.645590
vt 3.665478 5.645590
vt 3.991220 5.645590
vt 4.316962 5.645590
vt 0.346495 5.645590
vt 8.287428 5.645590
vt 6.477977 5.645590
vt 7.558484 5.645590
vt 5.584207 5.645590
vt 3.113515 5.645590
vt 6.161642 5.645590
vt 6.602468 5.645590
vt 7.065099 5.645590
vt 7.313975 5.645590
vt 9.362894 5.645590
vt 7.611062 5.645590
vt 6.155622 5.645590
vt 7.409009 5.645590
vt 12.953791 5.645590
vt 11.114727 5.645590
vt 8.662395 5.645590
vt 10.090245 5.645590
vt 0.881082 5.645590
vt 0.167856 5.645590
vt 0.268095 5.645590
vt 0.857337 5.645590
vt 2.287026 5.645590
vt 1.594307 5.645590
vt 1.446578 5.645590
vt 1.994804 5.645590
vt 3.703442 5.645590
vt 2.451502 5.645590
vt 1.486547 5.645590
vt 2.316005 5.645590
vt -0.089065 5.645590
vt -0.726694 5.645590
vt 6.441727 5.645590
vt 5.071727 5.645590
vt -1.109437 5.645590
vt -1.842826 5.645590
vt 1.303956 5.645590
vt 0.938307 5.645590
vt 2.979744 5.645590
vt 2.543031 5.645590
vt 0.207008 5.645590
vt 2.106318 5.645590
vt 1.669605 5.645589
vt 1.614116 5.645590
vt -1.740343 5.645590
vt 14.792855 5.645590
vt 11.518095 5.645590
vt 8.243335 5.645590
vt 4.968575 5.645590
vt 13.567059 5.645590
vt 11.316780 5.645590
vt 18.067616 5.645590
vt 15.817337 5.645590
vt 1.742037 5.645590
vt 0.904827 5.645590
vt 3.416457 5.645590
vt 2.579247 5.645590
vt 0.548564 5.645590
vt 5.090878 5.645590
vt 0.067616 5.645590
vt 9.066502 5.645590
vt 6.816223 5.645590
vt 4.565945 5.645590
vt 0.065389 5.645590
vt 1.742037 5.645590
vt 0.904827 5.645590
vt 9.066502 5.645590
vt 6.816223 5.645590
vt -1.364324 5.645590
vt -0.726694 5.645590
vt -2.001953 5.645590
vt -8.449260 5.645590
vt -6.285192 5.645590
vt 0.548564 5.645590
vt 5.090878 5.645590
vt 4.316962 5.645590
vt 0.346495 5.645590
vt -4.121126 5.645590
vt -1.957059 5.645590
vt -9.653504 5.645590
vt -7.102987 5.645590
vt -3.277212 5.645590
vt -2.639582 5.645590
vt 3.416457 5.645590
vt 2.579247 5.645590
vt -14.941461 5.645590
vt -12.777393 5.645590
vt -4.552470 5.645590
vt -0.089065 5.645590
vt 15.817337 5.645590
vt 13.567059 5.645590
vt 4.565945 5.645590
vt 0.065389 5.645590
vt 0.067616 5.645590
vt -10.613327 5.645590
vt 11.316780 5.645590
vt 3.113515 5.645590
vt 6.161642 5.645590
vt -17.105528 5.645590
vt 18.067616 5.645590
vt 9.209768 5.645590
vt 12.257895 5.645590
vt 0.207008 5.645590
vt 8.287428 5.645590
vt 6.477977 5.645590
vt 8.545992 5.645590
vt 8.025481 5.645590
vt 7.504971 5.645590
vt 6.984460 5.645589
vt 5.324969 5.645590
vn 0.0000 1.0000 0.0000
vn 0.0184 0.9997 -0.0187
vn -0.0411 0.9989 -0.0236
vn -0.0137 0.9991 -0.0402
vn -0.0269 0.9991 -0.0316
vn -0.0198 0.9995 -0.0258
vn 0.0436 0.9990 -0.0105
vn 0.0159 0.9996 0.0226
vn 0.0282 0.9970 0.0718
vn -0.0278 0.9979 0.0581
vn -0.1101 0.9923 0.0560
vn -0.0375 0.9770 0.2101
vn -0.0581 0.9773 0.2035
vn -0.1162 0.9909 0.0678
vn 0.1796 0.9800 0.0855
vn -0.0101 0.9892 0.1465
vn -0.0492 0.9982 -0.0356
vn 0.0525 0.9980 -0.0361
vn 0.0198 0.9997 -0.0136
vn 0.0155 0.9996 0.0228
vn -0.0190 0.9990 0.0408
vn -0.0476 0.9987 0.0178
vn 0.0915 0.9715 0.2188
vn -0.1345 0.9703 0.2010
vn -0.0234 0.9893 0.1438
vn -0.0129 0.9978 0.0655
vn -0.0098 0.9999 0.0063
vn -0.0018 1.0000 -0.0033
vn -0.0046 1.0000 -0.0036
vn -0.0487 0.9955 0.0815
vn 0.0232 0.9911 0.1308
vn 0.0018 1.0000 -0.0020
vn 0.0126 0.9990 0.0418
vn -0.0084 1.0000 0.0051
vn 0.0245 0.9995 -0.0221
vn 0.0110 0.9992 -0.0384
vn -0.0309 0.9990 0.0323
vn 0.0044 1.0000 0.0048
vn -0.1340 0.9805 0.1438
vn 0.0177 0.9998 -0.0022
vn 0.0048 1.0000 -0.0029
vn -0.0300 0.9949 0.0960
vn -0.0457 0.9772 0.2073
vn -0.0208 0.9997 0.0160
vn -0.0588 0.9836 0.1706
vn 0.0006 1.0000 -0.0002
vn -0.0066 0.9836 0.1801
vn 0.0004 1.0000 0.0005
vn 0.0008 1.0000 0.0003
vn 0.0174 0.9998 0.0088
vn 0.0237 0.9994 0.0253
vn -0.0493 0.9983 0.0317
vn 0.0497 0.9980 0.0385
vn 0.0335 0.9994 0.0112
vn 0.0399 0.9990 0.0221
vn -0.0227 0.9996 0.0166
vn -0.0472 0.9989 -0.0017
vn 0.0001 1.0000 -0.0002
vn 0.0036 0.9998 0.0201
vn -0.0408 0.9988 0.0267
vn -0.0102 0.9992 0.0377
vn 0.0021 1.0000 0.0034
vn 0.0025 1.0000 -0.0033
vn 0.0312 0.9978 -0.0593
vn -0.0338 0.9975 -0.0620
vn 0.6597 0.0000 -0.7515
vn -0.0191 0.0000 -0.9998
vn 0.9712 0.0000 0.2385
vn 0.9774 0.0000 0.2115
vn 0.0000 0.0000 1.0000
vn 0.6900 0.0000 -0.7239
vn -0.9140 0.0000 0.4057
vn 0.8925 0.0000 0.4511
vn 0.9889 0.0000 0.1484
vn 0.6637 0.0000 -0.7480
vn 0.9911 0.0000 0.1333
vn -0.0189 0.0000 -0.9998
vn -0.0696 0.0000 -0.9976
vn 0.4908 0.0000 -0.8713
vn 0.6755 0.0000 -0.7374
vn 0.9625 0.0000 0.2713
vn -0.9932 0.0000 0.1160
vn -0.0190 0.0000 -0.9998
vn 0.9974 0.0000 -0.0719
vn -0.3279 0.0000 0.9447
vn 0.9876 0.0000 0.1573
vn 0.0481 0.0000 -0.9988
vn -0.9721 0.0000 0.2344
vn 0.2347 0.0000 0.9721
vn -0.9898 0.0000 -0.1428
vn -0.9082 0.0000 0.4186
vn 0.0319 0.9993 -0.0210
vn 0.0496 0.9985 0.0243
vn 0.0233 0.9896 0.1418
vn 0.0861 0.9609 0.2631
vn 0.0526 0.9982 -0.0282
vn 0.0281 0.9982 0.0527
usemtl water
s off
f 65/1/1 24/2/1 48/3/1 68/4/1
f 59/5/1 23/6/1 47/7/1 62/8/1
f 53/9/2 22/10/2 46/11/2 56/12/2
f 83/13/3 75/14/3 20/15/3 12/16/3
f 20/15/4 21/17/4 45/18/4 44/19/4
f 12/16/5 20/15/5 44/19/5 43/20/5
f 75/14/6 76/21/6 21/17/6 20/15/6
f 84/22/7 77/23/7 22/10/7 53/9/7
f 85/24/1 78/25/1 23/6/1 59/5/1
f 86/26/1 79/27/1 24/2/1 65/1/1
f 87/28/8 80/29/8 25/30/8 71/31/8
f 141/32/9 81/33/9 26/34/9 137/35/9
f 81/33/10 82/36/10 9/37/10 26/34/10
f 36/38/1 37/39/1 17/40/1 7/41/1
f 37/39/1 38/42/1 3/43/1 17/40/1
f 55/44/11 39/45/11 13/46/11 51/47/11
f 61/48/12 40/49/12 8/50/12 58/51/12
f 67/52/13 41/53/13 18/54/13 63/55/13
f 73/56/14 42/57/14 4/58/14 70/59/14
f 42/60/15 139/61/15 14/62/15 4/63/15
f 26/34/16 9/64/16 14/65/16 50/66/16
f 95/67/17 96/68/17 35/69/17 34/70/17
f 142/71/18 95/67/18 34/70/18 138/72/18
f 100/73/19 94/74/19 33/75/19 72/76/19
f 99/77/1 93/78/1 32/79/1 66/80/1
f 98/81/1 92/82/1 31/83/1 60/84/1
f 97/85/20 91/86/20 30/87/20 54/88/20
f 89/89/21 90/90/21 29/91/21 28/92/21
f 88/93/22 89/89/22 28/92/22 27/94/22
f 140/95/23 50/66/23 14/65/23 139/96/23
f 74/97/24 49/98/24 42/57/24 73/56/24
f 68/4/25 48/3/25 41/53/25 67/52/25
f 62/8/26 47/7/26 40/49/26 61/48/26
f 56/12/27 46/11/27 39/45/27 55/44/27
f 44/19/28 45/18/28 38/42/28 37/39/28
f 43/20/29 44/19/29 37/39/29 36/38/29
f 71/31/30 25/30/30 49/98/30 74/97/30
f 137/35/31 26/34/31 50/66/31 140/95/31
f 45/99/32 56/12/32 55/44/32 38/100/32
f 90/101/33 97/85/33 54/88/33 29/102/33
f 38/100/34 55/44/34 51/47/34 3/103/34
f 76/104/35 84/22/35 53/9/35 21/105/35
f 21/105/36 53/9/36 56/12/36 45/99/36
f 46/11/37 62/8/37 61/48/37 39/45/37
f 91/86/38 98/81/38 60/84/38 30/87/38
f 39/45/39 61/48/39 58/51/39 13/46/39
f 77/23/40 85/24/40 59/5/40 22/10/40
f 22/10/41 59/5/41 62/8/41 46/11/41
f 47/106/42 68/4/42 67/52/42 40/107/42
f 92/108/1 99/77/1 66/80/1 31/109/1
f 40/107/43 67/52/43 63/55/43 8/50/43
f 78/110/1 86/26/1 65/1/1 23/111/1
f 23/111/1 65/1/1 68/4/1 47/106/1
f 24/2/44 71/31/44 74/97/44 48/3/44
f 48/3/45 74/97/45 73/56/45 41/53/45
f 93/78/46 100/73/46 72/76/46 32/79/46
f 41/53/47 73/56/47 70/59/47 18/54/47
f 79/27/48 87/28/48 71/31/48 24/2/48
f 32/79/49 72/76/49 87/28/49 79/27/49
f 31/109/1 66/80/1 86/26/1 78/110/1
f 30/87/50 60/84/50 85/24/50 77/23/50
f 29/102/51 54/88/51 84/22/51 76/104/51
f 34/70/52 35/69/52 82/36/52 81/33/52
f 138/72/53 34/70/53 81/33/53 141/32/53
f 72/76/54 33/75/54 80/29/54 87/28/54
f 66/80/1 32/79/1 79/27/1 86/26/1
f 60/84/1 31/83/1 78/25/1 85/24/1
f 54/88/55 30/87/55 77/23/55 84/22/55
f 28/92/56 29/91/56 76/21/56 75/14/56
f 27/94/57 28/92/57 75/14/57 83/13/57
f 19/112/58 69/113/58 100/73/58 93/78/58
f 1/114/1 64/115/1 99/77/1 92/108/1
f 11/116/1 57/117/1 98/81/1 91/86/1
f 6/118/59 52/119/59 97/85/59 90/101/59
f 2/120/60 16/121/60 89/89/60 88/93/60
f 16/121/61 6/118/61 90/90/61 89/89/61
f 52/119/62 11/116/62 91/86/62 97/85/62
f 57/117/1 1/122/1 92/82/1 98/81/1
f 64/115/1 19/112/1 93/78/1 99/77/1
f 69/113/63 10/123/63 94/74/63 100/73/63
f 136/124/64 15/125/64 95/67/64 142/71/64
f 15/125/65 5/126/65 96/68/65 95/67/65
f 57/117/66 11/116/66 111/127/66 126/128/66
f 136/124/67 10/123/67 110/129/67 143/130/67
f 27/94/68 83/13/68 133/131/68 120/132/68
f 83/13/69 12/16/69 112/133/69 133/131/69
f 58/51/70 8/50/70 108/134/70 127/135/70
f 16/121/71 2/120/71 102/136/71 116/137/71
f 4/63/72 14/62/72 114/138/72 104/139/72
f 51/47/70 13/46/70 113/140/70 124/141/70
f 17/40/73 3/43/73 103/142/73 117/143/73
f 43/20/74 36/38/74 122/144/74 123/145/74
f 52/119/75 6/118/75 106/146/75 125/147/75
f 18/54/70 70/59/70 131/148/70 118/149/70
f 36/38/76 7/41/76 107/150/76 122/144/76
f 88/93/68 27/94/68 120/132/68 134/151/68
f 19/112/77 64/115/77 129/152/77 119/153/77
f 5/126/78 15/125/78 115/154/78 105/155/78
f 1/122/79 57/117/79 126/128/79 101/156/79
f 6/118/80 16/121/80 116/137/80 106/146/80
f 7/41/81 17/40/81 117/143/81 107/150/81
f 8/50/70 63/55/70 128/157/70 108/134/70
f 69/113/77 19/112/77 119/153/77 130/158/77
f 35/69/82 96/68/82 135/159/82 121/160/82
f 10/123/83 69/113/83 130/158/83 110/129/83
f 2/120/84 88/93/84 134/151/84 102/136/84
f 70/59/85 4/58/85 104/161/85 131/148/85
f 11/116/66 52/119/66 125/147/66 111/127/66
f 12/16/86 43/20/86 123/145/86 112/133/86
f 63/55/70 18/54/70 118/149/70 128/157/70
f 13/46/70 58/51/70 127/135/70 113/140/70
f 64/115/87 1/114/87 101/162/87 129/152/87
f 9/37/88 82/36/88 132/163/88 109/164/88
f 3/103/89 51/47/89 124/141/89 103/165/89
f 96/68/90 5/126/90 105/155/90 135/159/90
f 14/65/91 9/64/91 109/166/91 114/167/91
f 82/36/82 35/69/82 121/160/82 132/163/82
f 15/125/67 136/124/67 143/130/67 115/154/67
f 10/123/92 136/124/92 142/71/92 94/168/92
f 33/169/93 138/72/93 141/32/93 80/170/93
f 25/171/94 137/35/94 140/95/94 49/172/94
f 49/172/95 140/95/95 139/96/95 42/60/95
f 94/168/96 142/71/96 138/72/96 33/169/96
f 80/170/97 141/32/97 137/35/97 25/171/97
